<?xml version="1.0" encoding="UTF-8" standalone="no"?>
<svg
   width="500"
   zoomAndPan="magnify"
   viewBox="0 0 375 374.999991"
   height="500"
   preserveAspectRatio="xMidYMid meet"
   version="1.0"
   id="svg38"
   sodipodi:docname="Logo SnowMate (SVG).svg"
   inkscape:export-filename="Logo SnowMate2 (SVG).svg"
   inkscape:export-xdpi="96"
   inkscape:export-ydpi="96"
   inkscape:version="1.3.2 (091e20e, 2023-11-25, custom)"
   xmlns:inkscape="http://www.inkscape.org/namespaces/inkscape"
   xmlns:sodipodi="http://sodipodi.sourceforge.net/DTD/sodipodi-0.dtd"
   xmlns="http://www.w3.org/2000/svg"
   xmlns:svg="http://www.w3.org/2000/svg">
  <sodipodi:namedview
     id="namedview38"
     pagecolor="#ffffff"
     bordercolor="#000000"
     borderopacity="0.25"
     inkscape:showpageshadow="2"
     inkscape:pageopacity="0.0"
     inkscape:pagecheckerboard="0"
     inkscape:deskcolor="#d1d1d1"
     inkscape:zoom="2.8284271"
     inkscape:cx="96.873629"
     inkscape:cy="170.23596"
     inkscape:window-width="2560"
     inkscape:window-height="1369"
     inkscape:window-x="-8"
     inkscape:window-y="-8"
     inkscape:window-maximized="1"
     inkscape:current-layer="svg38" />
  <defs
     id="defs1">
    <g
       id="g1" />
  </defs>
  <g
     fill="#1c7399"
     fill-opacity="1"
     id="g4">
    <g
       transform="translate(57.201956, 189.448283)"
       id="g3">
      <g
         id="g2">
        <path
           d="M 30.84375 1.1875 C 44.703125 1.1875 53.46875 -5.5625 53.46875 -16.234375 C 53.46875 -25.359375 47.265625 -31.015625 31.109375 -34.765625 C 17.703125 -37.765625 12.953125 -41.6875 12.953125 -48.078125 C 12.953125 -55.109375 18.984375 -59.765625 29.28125 -59.765625 C 39.953125 -59.765625 46.4375 -54.65625 46.890625 -45.625 L 52.375 -45.625 C 51.90625 -57.9375 43.34375 -65.046875 29.28125 -65.046875 C 15.6875 -65.046875 7.390625 -58.296875 7.390625 -48.078125 C 7.390625 -38.5 14.046875 -33.203125 29.75 -29.5625 C 42.609375 -26.734375 47.8125 -22.8125 47.8125 -16.15625 C 47.8125 -8.765625 41.328125 -4.109375 30.84375 -4.109375 C 19.796875 -4.109375 12.40625 -9.578125 11.859375 -18.984375 L 6.390625 -18.984375 C 6.84375 -6.65625 16.234375 1.1875 30.84375 1.1875 Z M 30.84375 1.1875 "
           id="path1" />
      </g>
    </g>
  </g>
  <g
     fill="#1c7399"
     fill-opacity="1"
     id="g7">
    <g
       transform="translate(117.136653, 189.448283)"
       id="g6">
      <g
         id="g5">
        <path
           d="M 9.390625 0 L 14.6875 0 L 14.6875 -24.453125 C 14.6875 -35.671875 21.625 -43.25 31.5625 -43.25 C 40.96875 -43.25 46.796875 -36.5 46.796875 -25.640625 L 46.796875 0 L 52.09375 0 L 52.09375 -26.09375 C 52.09375 -39.6875 44.515625 -48.359375 32.203125 -48.359375 C 24.640625 -48.359375 18.0625 -44.796875 14.328125 -38.046875 L 13.875 -47.171875 L 9.390625 -47.171875 Z M 9.390625 0 "
           id="path4" />
      </g>
    </g>
  </g>
  <g
     fill="#1c7399"
     fill-opacity="1"
     id="g10">
    <g
       transform="translate(177.618698, 189.448283)"
       id="g9">
      <g
         id="g8">
        <path
           d="M 30.109375 1.1875 C 44.609375 1.1875 54.828125 -9.03125 54.828125 -23.625 C 54.828125 -38.140625 44.609375 -48.359375 30.109375 -48.359375 C 15.515625 -48.359375 5.296875 -38.140625 5.296875 -23.625 C 5.296875 -9.03125 15.515625 1.1875 30.109375 1.1875 Z M 10.578125 -23.625 C 10.578125 -35.21875 18.515625 -43.25 30.109375 -43.25 C 41.609375 -43.25 49.546875 -35.21875 49.546875 -23.625 C 49.546875 -11.953125 41.609375 -3.921875 30.109375 -3.921875 C 18.515625 -3.921875 10.578125 -11.953125 10.578125 -23.625 Z M 10.578125 -23.625 "
           id="path7" />
      </g>
    </g>
  </g>
  <g
     fill="#1c7399"
     fill-opacity="1"
     id="g13">
    <g
       transform="translate(237.735828, 189.448283)"
       id="g12">
      <g
         id="g11">
        <path
           d="M 18.984375 0 L 24.078125 0 L 39.234375 -39.40625 L 46.25 -21.078125 L 54.375 0 L 59.484375 0 L 76.546875 -47.171875 L 70.984375 -47.171875 L 56.9375 -7.9375 L 50.265625 -25.09375 L 41.6875 -47.171875 L 36.765625 -47.171875 L 28.28125 -25.09375 L 21.625 -7.9375 L 7.65625 -47.171875 L 2 -47.171875 Z M 18.984375 0 "
           id="path10" />
      </g>
    </g>
  </g>
  <g
     fill="#1c7399"
     fill-opacity="1"
     id="g16">
    <g
       transform="translate(56.325654, 262.597532)"
       id="g15">
      <g
         id="g14">
        <path
           d="M 6.4375 0 L 23.859375 0 L 23.859375 -30.921875 L 35.625 -14.453125 L 47.03125 -14.453125 L 58.703125 -30.828125 L 58.703125 0 L 76.125 0 L 76.125 -60.96875 L 61.84375 -60.96875 L 41.28125 -31.96875 L 20.8125 -60.96875 L 6.4375 -60.96875 Z M 6.4375 0 "
           id="path13" />
      </g>
    </g>
  </g>
  <g
     fill="#1c7399"
     fill-opacity="1"
     id="g19">
    <g
       transform="translate(138.889167, 262.597532)"
       id="g18">
      <g
         id="g17">
        <path
           d="M 0.4375 0 L 19.078125 0 L 22.390625 -8.625 L 43.203125 -8.625 L 46.515625 0 L 65.234375 0 L 41.546875 -60.96875 L 24.125 -60.96875 Z M 26.046875 -21.515625 L 32.828125 -40.40625 L 39.625 -21.515625 Z M 26.046875 -21.515625 "
           id="path16" />
      </g>
    </g>
  </g>
  <g
     fill="#1c7399"
     fill-opacity="1"
     id="g22">
    <g
       transform="translate(204.55677, 262.597532)"
       id="g21">
      <g
         id="g20">
        <path
           d="M 20.984375 0 L 38.5 0 L 38.5 -44.671875 L 57.046875 -44.671875 L 57.046875 -60.96875 L 2.4375 -60.96875 L 2.4375 -44.671875 L 20.984375 -44.671875 Z M 20.984375 0 "
           id="path19" />
      </g>
    </g>
  </g>
  <g
     fill="#1c7399"
     fill-opacity="1"
     id="g25">
    <g
       transform="translate(264.040821, 262.597532)"
       id="g24">
      <g
         id="g23">
        <path
           d="M 6.4375 0 L 49.203125 0 L 49.203125 -14.375 L 23.859375 -14.375 L 23.859375 -23.78125 L 45.90625 -23.78125 L 45.90625 -37.890625 L 23.859375 -37.890625 L 23.859375 -46.765625 L 48.25 -46.765625 L 48.25 -60.96875 L 6.4375 -60.96875 Z M 6.4375 0 "
           id="path22" />
      </g>
    </g>
  </g>
  <path
     style="fill:#1b7299;fill-opacity:1;stroke:none;stroke-width:6.5955;stroke-dasharray:none;stroke-opacity:1"
     d="m 248.69922,131.95207 v -6.75 l -13.92015,-5.35004 21.21298,-12.24176 -4.87389,-8.442657 -21.29879,12.293327 1.94854,-14.969402 -9.66733,-1.257803 -2.87538,22.180435 -13.50685,7.7879 H 192.37109 V 102.21745 L 210.26496,88.426668 204.3164,80.70793 192.37109,89.909088 V 65.280187 h -9.75 v 24.664061 l -11.97265,-9.231203 -5.95401,7.71948 17.92666,13.801495 v 22.96805 h -13.3795 l -13.24997,-7.64648 -3.13225,-22.257662 -9.65189,1.355197 2.08639,14.857535 -21.36809,-12.339147 -4.87485,8.456327 20.68111,11.92758 -13.43126,5.64665 v 6.75 z"
     id="path50" />
</svg>
